<?xml version="1.0" encoding="UTF-8"?>
<!DOCTYPE svg PUBLIC "-//W3C//DTD SVG 1.1//EN" "http://www.w3.org/Graphics/SVG/1.1/DTD/svg11.dtd">
<!-- Creator: CorelDRAW -->
<svg xmlns="http://www.w3.org/2000/svg" xml:space="preserve" width="320mm" height="420mm" version="1.1" style="shape-rendering:geometricPrecision; text-rendering:geometricPrecision; image-rendering:optimizeQuality; fill-rule:evenodd; clip-rule:evenodd"
viewBox="0 0 32000 42000"
 xmlns:xlink="http://www.w3.org/1999/xlink"
 xmlns:xodm="http://www.corel.com/coreldraw/odm/2003">
 <defs>
  <style type="text/css">
   <![CDATA[
    .str0 {stroke:red;stroke-width:7.62;stroke-miterlimit:22.9256}
    .fil0 {fill:none}
   ]]>
  </style>
 </defs>
 <g id="Layer_x0020_1">
  <metadata id="CorelCorpID_0Corel-Layer"/>
  <polygon class="fil0 str0" points="28161.4,10598.39 28161.4,10298.39 26161.4,10298.39 26161.4,10598.39 24161.4,10598.39 24161.4,9098.39 24461.4,9098.39 24461.4,7098.39 24161.4,7098.39 24161.4,5098.39 24461.4,5098.39 24461.4,3098.39 24161.4,3098.39 24161.4,798.38 26161.4,798.38 26161.4,1098.38 28161.4,1098.38 28161.4,798.38 30861.79,798.41 30861.79,10598.38 "/>
  <g id="_105553420908640">
   <polyline class="fil0 str0" points="1761.4,10298.39 3761.4,10298.39 3761.4,10598.39 "/>
   <polyline class="fil0 str0" points="5761.4,10298.39 5761.4,10598.39 3761.4,10598.39 3761.4,10298.39 "/>
   <polyline class="fil0 str0" points="5761.4,10598.39 5761.4,10298.39 7761.4,10298.39 7761.4,10598.39 "/>
   <polyline class="fil0 str0" points="9761.4,10298.39 9761.4,10598.39 7761.4,10598.39 7761.4,10298.39 "/>
   <polyline class="fil0 str0" points="9761.4,10598.39 9761.4,10298.39 11761.4,10298.39 11761.4,10598.39 "/>
   <polyline class="fil0 str0" points="13761.4,10298.39 13761.4,10598.39 11761.4,10598.39 11761.4,10298.39 "/>
   <polyline class="fil0 str0" points="13761.4,10598.39 13761.4,10298.39 15761.4,10298.39 15761.4,10598.39 "/>
   <polyline class="fil0 str0" points="17761.4,10298.39 17761.4,10598.39 15761.4,10598.39 15761.4,10298.39 "/>
   <polyline class="fil0 str0" points="17761.4,10598.39 17761.4,10298.39 19761.4,10298.39 19761.4,10598.39 "/>
   <polyline class="fil0 str0" points="21761.4,10298.39 21761.4,10598.39 19761.4,10598.39 19761.4,10298.39 "/>
   <polyline class="fil0 str0" points="21761.4,10598.39 21761.4,10298.39 23761.4,10298.39 "/>
   <path class="fil0 str0" d="M19761.4 10298.39l-2000 0m-2000 0l-2000 0m-2000 0l-2000 0m-2000 0l-2000 0m-2000 0l-2000 0m0 -9200l2000 0m2000 0l2000 0m2000 0l2000 0m2000 0l2000 0m2000 0l2000 0m2000 0l2400 0 0 2000m0 2000l0 2000m0 2000l0 1200 -2400 0"/>
   <polyline class="fil0 str0" points="3761.4,798.39 3761.4,1098.39 1761.4,1098.39 "/>
   <polyline class="fil0 str0" points="3761.4,1098.39 3761.4,798.39 5761.4,798.39 5761.4,1098.39 "/>
   <polyline class="fil0 str0" points="7761.4,798.39 7761.4,1098.39 5761.4,1098.39 5761.4,798.39 "/>
   <polyline class="fil0 str0" points="7761.4,1098.39 7761.4,798.39 9761.4,798.39 9761.4,1098.39 "/>
   <polyline class="fil0 str0" points="11761.4,798.39 11761.4,1098.39 9761.4,1098.39 9761.4,798.39 "/>
   <polyline class="fil0 str0" points="11761.4,1098.39 11761.4,798.39 13761.4,798.39 13761.4,1098.39 "/>
   <polyline class="fil0 str0" points="15761.4,798.39 15761.4,1098.39 13761.4,1098.39 13761.4,798.39 "/>
   <polyline class="fil0 str0" points="15761.4,1098.39 15761.4,798.39 17761.4,798.39 17761.4,1098.39 "/>
   <polyline class="fil0 str0" points="19761.4,798.39 19761.4,1098.39 17761.4,1098.39 17761.4,798.39 "/>
   <polyline class="fil0 str0" points="19761.4,1098.39 19761.4,798.39 21761.4,798.39 21761.4,1098.39 "/>
   <polyline class="fil0 str0" points="23761.4,1098.39 21761.4,1098.39 21761.4,798.39 "/>
   <line class="fil0 str0" x1="24161.4" y1="1098.39" x2="23761.4" y2= "1098.39" />
   <polyline class="fil0 str0" points="1261.57,9098.39 1561.57,9098.39 1561.57,10298.39 "/>
   <polyline class="fil0 str0" points="1561.57,9098.39 1261.57,9098.39 1261.57,7098.39 1561.57,7098.39 "/>
   <polyline class="fil0 str0" points="1261.57,5098.39 1561.57,5098.39 1561.57,7098.39 1261.57,7098.39 "/>
   <polyline class="fil0 str0" points="1561.57,5098.39 1261.57,5098.39 1261.57,3098.39 1561.57,3098.39 "/>
   <polyline class="fil0 str0" points="1561.57,1098.39 1561.57,3098.39 1261.57,3098.39 "/>
   <polyline class="fil0 str0" points="24161.4,10298.39 24161.4,9098.39 24461.4,9098.39 "/>
   <polyline class="fil0 str0" points="24161.4,7098.39 24461.4,7098.39 24461.4,9098.39 24161.4,9098.39 "/>
   <path class="fil0 str0" d="M24161.4 5098.39l300 0m0 2000l-300 0"/>
   <polyline class="fil0 str0" points="24161.4,3098.39 24461.4,3098.39 24461.4,5098.39 24161.4,5098.39 "/>
   <line class="fil0 str0" x1="24461.4" y1="3098.39" x2="24161.4" y2= "3098.39" />
   <line class="fil0 str0" x1="1561.57" y1="1098.39" x2="1761.4" y2= "1098.39" />
   <line class="fil0 str0" x1="1561.57" y1="10298.39" x2="1761.4" y2= "10298.39" />
  </g>
  <polygon class="fil0 str0" points="10761.58,23298.38 10761.58,27198.39 1561.58,27198.39 1561.58,23298.38 1261.58,23298.38 1261.58,21898.38 11061.58,21898.38 11061.58,23298.38 "/>
  <polygon class="fil0 str0" points="1561.57,17981.74 1261.58,17981.74 1261.58,19981.74 1561.57,19981.74 1561.57,21798.41 10761.57,21798.42 10761.57,19981.74 11061.58,19981.74 11061.58,17981.74 10761.58,17981.74 10761.58,15898.41 1561.57,15898.41 "/>
  <polygon class="fil0 str0" points="25272.62,27781.75 27973,27781.74 27973,17981.77 25272.62,17981.74 25272.62,18281.74 23272.62,18281.74 23272.62,17981.74 21272.62,17981.74 21272.62,20281.75 21572.62,20281.75 21572.62,22281.75 21272.62,22281.75 21272.62,24281.75 21572.62,24281.75 21572.62,26281.75 21272.62,26281.75 21272.62,27781.75 23272.62,27781.75 23272.62,27481.75 25272.62,27481.75 "/>
  <polygon class="fil0 str0" points="11772.61,17981.74 11472.62,17981.74 11472.62,19981.74 11772.61,19981.74 11772.61,21798.41 20972.61,21798.42 20972.61,19981.74 21272.62,19981.74 21272.62,17981.74 20972.62,17981.74 20972.62,15898.41 11772.61,15898.41 "/>
  <polygon class="fil0 str0" points="20561.58,23298.38 20561.58,27198.39 11361.58,27198.39 11361.58,23298.38 11061.58,23298.38 11061.58,21898.38 20861.58,21898.38 20861.58,23298.38 "/>
  <polygon class="fil0 str0" points="10761.58,28598.39 10761.58,32498.4 1561.58,32498.4 1561.58,28598.39 1261.58,28598.39 1261.58,27198.39 11061.58,27198.39 11061.58,28598.39 "/>
  <polygon class="fil0 str0" points="20561.58,28598.39 20561.58,32498.4 11361.58,32498.4 11361.58,28598.39 11061.58,28598.39 11061.58,27198.39 20861.58,27198.39 20861.58,28598.39 "/>
  <path class="fil0 str0" d="M1561.58 33998.38l-300 0 0 2000 300 0 0 2000 2199.83 0 0 -300 2000 0 0 300 2000 0 0 -300 2000 0 0 300 2000 0 0 -300 2000 0 0 300 2000 0 0 -300 2000 0 0 300 2000 0 0 -300 2000 0 0 300 2400 0 0 -2000 300 0 0 -2000 -300 0m-1375.22 2278.16l253.86 -159.87 -1065.76 -1692.38 -253.85 159.86 1065.75 1692.39zm-19037.52 -225.69l-1065.75 -1692.38m253.85 -159.87l1065.75 1692.39m-1065.75 -1692.39l-253.86 159.87 1065.76 1692.38 253.85 -159.86 -1065.75 -1692.39zm20724.63 -1700.2l-4534.67 0c-115.7,21.9 -203.22,123.55 -203.22,245.63 0,25.97 3.97,51.02 11.31,74.57l864.11 1372.19 -253.86 159.86 -1065.75 -1692.39 -50.52 -80.22c-45.69,-49.64 -111.21,-80.76 -184,-80.76 -8.03,0 -15.99,0.38 -17.87,0.7l-1100.17 0.42c-115.7,21.9 -203.22,123.55 -203.22,245.63 0,25.97 3.97,51.02 11.31,74.57l864.11 1372.19 -253.86 159.86 -1116.27 -1772.61c-45.69,-49.64 -111.21,-80.76 -184,-80.76l-1118.06 1.12c-115.7,21.9 -203.22,123.55 -203.22,245.63 0,25.97 3.97,51.02 11.31,74.57l864.11 1372.19 -253.86 159.86 -1065.75 -1692.39 -50.52 -80.22c-45.69,-49.64 -111.21,-80.76 -184,-80.76l-1118.09 1.12c-115.7,21.9 -203.22,123.55 -203.22,245.63 0,25.97 3.97,51.02 11.31,74.57l864.11 1372.19 -253.86 159.86 -1065.75 -1692.39 -50.52 -80.22c-45.69,-49.64 -111.21,-80.76 -184,-80.76 -8.03,0 31.65,0.38 23.82,1.12l-1141.89 0c-115.7,21.9 -203.22,123.55 -203.22,245.63 0,25.97 3.97,51.02 11.31,74.57l864.11 1372.19 -253.86 159.86 -1065.75 -1692.39 -50.52 -80.22c-45.69,-49.64 -87.39,-79.64 -160.18,-79.64l-1141.89 0c-115.7,21.9 -203.22,123.55 -203.22,245.63 0,25.97 3.97,51.02 11.31,74.57l864.11 1372.19 -253.86 159.86 -1065.75 -1692.39 -50.52 -80.22c-45.69,-49.64 -111.21,-80.76 -172.09,-80.2l-1129.98 0.57c-115.7,21.9 -203.22,123.55 -203.22,245.63 0,25.97 3.97,51.02 11.31,74.57l864.11 1372.19 -253.86 159.86 -1116.27 -1772.61c-45.69,-49.64 -111.21,-80.76 -184,-80.76 -8.03,0 31.54,0.37 23.71,1.11l-1141.78 0.01c-115.7,21.9 -203.22,123.55 -203.22,245.63 0,25.97 3.97,51.02 11.31,74.57l864.11 1372.19 -253.86 159.86 -1065.75 -1692.39 -50.52 -80.22c-45.69,-49.64 -111.21,-80.76 -184,-80.76 -8.03,0 -15.99,0.38 -0.05,1.12l-2683.19 -0.01 0 1499.98 -300 0m22899.84 0l0 -2700.01 -300.01 0c-109.99,0 -200,90 -200,200l0 1000.03m-13081.2 2732.21l150.02 -109.28c57.31,-8.64 129.42,-60.03 187,-76.38 119.96,-34.08 149.16,-47.27 272.63,-70.42 36.08,-6.77 51.94,-13.67 87.21,-22.33 29.34,-7.2 54.37,0.72 89.02,-2.69 175.92,-17.33 623.39,-22.77 770.38,12.33 45.73,-34.1 -32.88,10.88 8.83,-15.02 50.47,16.12 135.14,20.6 192.96,29.69 65.3,10.26 121.57,19.02 187.02,29.39 133.66,21.19 237.89,44.62 378.14,71.7 127.46,24.61 246.03,57.66 375.99,83.46l283.04 65.95c36.98,6.18 64.72,-21.26 106.18,-47.95 143.35,-92.27 289.42,-190.9 430.79,-288.65 177.6,-122.8 434.88,-333.32 637.07,-306.52l379.82 59.62c176.84,29.93 229.05,42.93 127.17,166.2l-604.99 704.49c76.92,71.56 238.93,38.51 233.34,188.74 -3.79,101.42 -23.56,197.5 -37.55,294.06 -65.37,451.41 -68.09,368.6 -330,390.1 -4.08,44.76 265.85,655.49 304.45,747.78 92.2,220.49 151.15,284.24 -79.12,242.33l-299.05 -46.63c-262.93,-56.95 -237.77,-4.5 -419.91,-233.13 -175.54,-220.35 -398.44,-517.34 -571.67,-720.29 -35.62,-41.73 -30.36,-33.35 -71.33,-35.85 -294.69,-17.96 -752.65,-67.07 -1041.88,-112.24 -254.22,-39.7 -637.46,-125.86 -873.89,-205.38 -60.38,-20.31 -312.24,-105.95 -350.25,-137.19 -90.23,-74.14 -262.37,-111.27 -472.87,-359.44 -177.77,-209.59 -107.92,-180.76 -48.55,-296.45zm6857.04 1200.27l-9.64 7.02c-40.07,-14.1 -85.54,-18.07 -128.58,-13.32 -77.74,8.57 -181.02,57.94 -262.28,84.49 -114.99,37.57 1.12,33.59 -100.53,33.07 -64.29,-0.34 -175.53,54.16 -381.62,28.77 -79.73,-9.82 -74.99,-37.25 -119.68,-19.41 84.8,165.15 326.59,156.02 381.72,207.64 -20.33,9.07 -34.07,12.93 -50.67,18.46 -34.38,11.46 -20.59,9.05 -53.92,12.47 -34.98,3.6 -72.35,12.35 -105.21,15.68 -80.28,8.14 -120.48,7.59 -196.49,-7.77 -39.39,-7.96 -260.65,-97.66 -280.7,-116.36 -17.5,-16.31 -31.59,-32 -64.85,-41.14 -15.28,-4.19 -6.68,-2.44 -20.34,-2.86 1.01,37.35 22.03,68.01 47.29,100.95 73.84,96.31 164.28,133.39 240.33,189.85 -74.36,6.95 -302.17,-61.91 -386.79,-96.02 -154.7,-62.35 -102.07,-25.02 -234.8,-131.7 -41.8,-33.59 -80.97,-73.91 -114.7,-119.06 -34.97,-46.8 -60.77,-93.53 -82.44,-146.24 -15.69,-38.17 -38.31,-95.88 -22.57,-134.08 92.08,150.76 251.98,233.03 382.15,301.8 0.91,-13.23 2.03,-5.64 -1.95,-22.63l-19.32 -41.57c-28.03,-50.45 -128.34,-254.38 13.39,-159.24 17.93,12.03 36.34,23.09 56.75,36.87 38.37,25.88 70.85,48.04 109.28,74.45 39.13,26.88 70.91,48.05 112.57,56.38 30.65,6.13 87.4,21.44 120.31,14.76 -37.28,-35.27 -130.8,-86.76 -123.98,-150.57 6.32,-59.1 102.62,-76.82 146.19,-80.24l154.56 -10.64c28.66,1.02 54.14,3.52 82.05,7.15 41.46,5.41 47.03,13.87 86.9,5.85 -63.74,-72.34 -145.25,-145.3 -217.79,-186.47 -63.27,-35.92 -195.97,-53.93 -226.75,-88.36 65.65,-68.19 111.31,-76.41 185.73,-112.45 -73.85,-32.9 -354.71,-49.1 -441.8,-15.67 -36.34,13.95 -120.03,49.25 -153.29,38.39 -4.12,-76.31 124.4,-170.59 200.04,-226.22 -38.84,-22.26 -121.39,-11.07 -177.42,2.87 -83.02,20.67 -124.02,59.22 -190.17,80.84l11.8 -35.65c89.29,-140.2 306.58,-203.1 364.6,-233.25 43.14,-22.42 11.68,-8 61.38,-10.29 20.47,-0.94 46.68,-6.45 66.24,-9.31 149.17,-21.76 392.41,0.13 518.61,72.72 -30.85,53.25 -69.18,6.15 -186.35,44.74 -76.81,25.3 -154.46,65.5 -225.38,119.32 59.63,34.86 332.48,1.79 422.38,8.72 88.86,6.84 121.23,15.03 199.2,71.91 42.27,30.84 163.3,118.51 173.3,160.05 -74.85,-44.9 -107.13,-39.96 -177.88,-50.49 -56.15,-8.35 -125.44,-33.19 -191.92,43.99 9.15,35.84 146.41,156.93 181.02,188.52 127,115.9 313.04,85.99 431.1,96.84 91.18,8.38 144.89,36.21 200.92,136.44zm-2034.08 -833.22c35.01,46.95 -9.98,233.43 -19.03,300.29l-69.19 448.68c-16.41,94.87 -32.94,273.49 -140.4,188.5 -39.33,-31.11 -78.6,-43.65 -134.69,-71.77 -47.18,-23.65 -105.9,-49.03 -109.32,-112.93 -4.07,-75.85 44.08,-371.87 57.15,-450.63 9.15,-55.14 18.24,-94.28 29.7,-148.59 38.17,-180.97 160.66,-104.55 317.62,-161.63 9.9,-3.61 55.66,-8.69 68.16,8.08z"/>
  <path class="fil0 str0" d="M1561.57 14298.39l-300 0 0 -2000 300 0 0 -2000 2199.83 0 0 300 2000 0 0 -300 2000 0 0 300 2000 0 0 -300 2000 0 0 300 2000 0 0 -300 2000 0 0 300 2000 0 0 -300 2000 0 0 300 2000 0 0 -300 2400 0 0 2000 300 0 0 2000 -300 0m-1375.22 -2278.16l253.86 159.87 -1065.76 1692.38 -253.85 -159.86 1065.75 -1692.39zm-19037.52 225.69l-1065.75 1692.38m253.85 159.87l1065.75 -1692.39m-1065.75 1692.39l-253.86 -159.87 1065.76 -1692.38 253.85 159.86 -1065.75 1692.39zm20724.63 1700.2l-4534.67 0c-115.7,-21.9 -203.22,-123.55 -203.22,-245.63 0,-25.97 3.97,-51.02 11.31,-74.57l864.11 -1372.19 -253.86 -159.86 -1065.75 1692.39 -50.52 80.22c-45.69,49.64 -111.21,80.76 -184,80.76 -8.03,0 -15.99,-0.38 -17.87,-0.7l-1100.17 -0.42c-115.7,-21.9 -203.22,-123.55 -203.22,-245.63 0,-25.97 3.97,-51.02 11.31,-74.57l864.11 -1372.19 -253.86 -159.86 -1116.27 1772.61c-45.69,49.64 -111.21,80.76 -184,80.76l-1118.06 -1.12c-115.7,-21.9 -203.22,-123.55 -203.22,-245.63 0,-25.97 3.97,-51.02 11.31,-74.57l864.11 -1372.19 -253.86 -159.86 -1065.75 1692.39 -50.52 80.22c-45.69,49.64 -111.21,80.76 -184,80.76l-1118.09 -1.12c-115.7,-21.9 -203.22,-123.55 -203.22,-245.63 0,-25.97 3.97,-51.02 11.31,-74.57l864.11 -1372.19 -253.86 -159.86 -1065.75 1692.39 -50.52 80.22c-45.69,49.64 -111.21,80.76 -184,80.76 -8.03,0 31.65,-0.38 23.82,-1.12l-1141.89 0c-115.7,-21.9 -203.22,-123.55 -203.22,-245.63 0,-25.97 3.97,-51.02 11.31,-74.57l864.11 -1372.19 -253.86 -159.86 -1065.75 1692.39 -50.52 80.22c-45.69,49.64 -87.39,79.64 -160.18,79.64l-1141.89 0c-115.7,-21.9 -203.22,-123.55 -203.22,-245.63 0,-25.97 3.97,-51.02 11.31,-74.57l864.11 -1372.19 -253.86 -159.86 -1065.75 1692.39 -50.52 80.22c-45.69,49.64 -111.21,80.76 -172.09,80.2l-1129.98 -0.57c-115.7,-21.9 -203.22,-123.55 -203.22,-245.63 0,-25.97 3.97,-51.02 11.31,-74.57l864.11 -1372.19 -253.86 -159.86 -1116.27 1772.61c-45.69,49.64 -111.21,80.76 -184,80.76 -8.03,0 31.54,-0.37 23.71,-1.11l-1141.78 -0.01c-115.7,-21.9 -203.22,-123.55 -203.22,-245.63 0,-25.97 3.97,-51.02 11.31,-74.57l864.11 -1372.19 -253.86 -159.86 -1065.75 1692.39 -50.52 80.22c-45.69,49.64 -111.21,80.76 -184,80.76 -8.03,0 -15.99,-0.38 -0.05,-1.12l-2683.19 0.01 0 -1499.98 -300 0m22899.84 0l0 2700.01 -300.01 0c-109.99,0 -200,-90 -200,-200l0 -1000.03m-13081.2 -2732.21l150.02 109.28c57.31,8.64 129.42,60.03 187,76.38 119.96,34.08 149.16,47.27 272.63,70.42 36.08,6.77 51.94,13.67 87.21,22.33 29.34,7.2 54.37,-0.72 89.02,2.69 175.92,17.33 623.39,22.77 770.38,-12.33 45.73,34.1 -32.88,-10.88 8.83,15.02 50.47,-16.12 135.14,-20.6 192.96,-29.69 65.3,-10.26 121.57,-19.02 187.02,-29.39 133.66,-21.19 237.89,-44.62 378.14,-71.7 127.46,-24.61 246.03,-57.66 375.99,-83.46l283.04 -65.95c36.98,-6.18 64.72,21.26 106.18,47.95 143.35,92.27 289.42,190.9 430.79,288.65 177.6,122.8 434.88,333.32 637.07,306.52l379.82 -59.62c176.84,-29.93 229.05,-42.93 127.17,-166.2l-604.99 -704.49c76.92,-71.56 238.93,-38.51 233.34,-188.74 -3.79,-101.42 -23.56,-197.5 -37.55,-294.06 -65.37,-451.41 -68.09,-368.6 -330,-390.1 -4.08,-44.76 265.85,-655.49 304.45,-747.78 92.2,-220.49 151.15,-284.24 -79.12,-242.33l-299.05 46.63c-262.93,56.95 -237.77,4.5 -419.91,233.13 -175.54,220.35 -398.44,517.34 -571.67,720.29 -35.62,41.73 -30.36,33.35 -71.33,35.85 -294.69,17.96 -752.65,67.07 -1041.88,112.24 -254.22,39.7 -637.46,125.86 -873.89,205.38 -60.38,20.31 -312.24,105.95 -350.25,137.19 -90.23,74.14 -262.37,111.27 -472.87,359.44 -177.77,209.59 -107.92,180.76 -48.55,296.45zm6857.04 -1200.27l-9.64 -7.02c-40.07,14.1 -85.54,18.07 -128.58,13.32 -77.74,-8.57 -181.02,-57.94 -262.28,-84.49 -114.99,-37.57 1.12,-33.59 -100.53,-33.07 -64.29,0.34 -175.53,-54.16 -381.62,-28.77 -79.73,9.82 -74.99,37.25 -119.68,19.41 84.8,-165.15 326.59,-156.02 381.72,-207.64 -20.33,-9.07 -34.07,-12.93 -50.67,-18.46 -34.38,-11.46 -20.59,-9.05 -53.92,-12.47 -34.98,-3.6 -72.35,-12.35 -105.21,-15.68 -80.28,-8.14 -120.48,-7.59 -196.49,7.77 -39.39,7.96 -260.65,97.66 -280.7,116.36 -17.5,16.31 -31.59,32 -64.85,41.14 -15.28,4.19 -6.68,2.44 -20.34,2.86 1.01,-37.35 22.03,-68.01 47.29,-100.95 73.84,-96.31 164.28,-133.39 240.33,-189.85 -74.36,-6.95 -302.17,61.91 -386.79,96.02 -154.7,62.35 -102.07,25.02 -234.8,131.7 -41.8,33.59 -80.97,73.91 -114.7,119.06 -34.97,46.8 -60.77,93.53 -82.44,146.24 -15.69,38.17 -38.31,95.88 -22.57,134.08 92.08,-150.76 251.98,-233.03 382.15,-301.8 0.91,13.23 2.03,5.64 -1.95,22.63l-19.32 41.57c-28.03,50.45 -128.34,254.38 13.39,159.24 17.93,-12.03 36.34,-23.09 56.75,-36.87 38.37,-25.88 70.85,-48.04 109.28,-74.45 39.13,-26.88 70.91,-48.05 112.57,-56.38 30.65,-6.13 87.4,-21.44 120.31,-14.76 -37.28,35.27 -130.8,86.76 -123.98,150.57 6.32,59.1 102.62,76.82 146.19,80.24l154.56 10.64c28.66,-1.02 54.14,-3.52 82.05,-7.15 41.46,-5.41 47.03,-13.87 86.9,-5.85 -63.74,72.34 -145.25,145.3 -217.79,186.47 -63.27,35.92 -195.97,53.93 -226.75,88.36 65.65,68.19 111.31,76.41 185.73,112.45 -73.85,32.9 -354.71,49.1 -441.8,15.67 -36.34,-13.95 -120.03,-49.25 -153.29,-38.39 -4.12,76.31 124.4,170.59 200.04,226.22 -38.84,22.26 -121.39,11.07 -177.42,-2.87 -83.02,-20.67 -124.02,-59.22 -190.17,-80.84l11.8 35.65c89.29,140.2 306.58,203.1 364.6,233.25 43.14,22.42 11.68,8 61.38,10.29 20.47,0.94 46.68,6.45 66.24,9.31 149.17,21.76 392.41,-0.13 518.61,-72.72 -30.85,-53.25 -69.18,-6.15 -186.35,-44.74 -76.81,-25.3 -154.46,-65.5 -225.38,-119.32 59.63,-34.86 332.48,-1.79 422.38,-8.72 88.86,-6.84 121.23,-15.03 199.2,-71.91 42.27,-30.84 163.3,-118.51 173.3,-160.05 -74.85,44.9 -107.13,39.96 -177.88,50.49 -56.15,8.35 -125.44,33.19 -191.92,-43.99 9.15,-35.84 146.41,-156.93 181.02,-188.52 127,-115.9 313.04,-85.99 431.1,-96.84 91.18,-8.38 144.89,-36.21 200.92,-136.44zm-2034.08 833.22c35.01,-46.95 -9.98,-233.43 -19.03,-300.29l-69.19 -448.68c-16.41,-94.87 -32.94,-273.49 -140.4,-188.5 -39.33,31.11 -78.6,43.65 -134.69,71.77 -47.18,23.65 -105.9,49.03 -109.32,112.93 -4.07,75.85 44.08,371.87 57.15,450.63 9.15,55.14 18.24,94.28 29.7,148.59 38.17,180.97 160.66,104.55 317.62,161.63 9.9,3.61 55.66,8.69 68.16,-8.08z"/>
 </g>
</svg>
