<?xml version="1.0" encoding="UTF-8"?>
<!DOCTYPE svg PUBLIC "-//W3C//DTD SVG 1.1//EN" "http://www.w3.org/Graphics/SVG/1.1/DTD/svg11.dtd">
<!-- Creator: CorelDRAW -->
<svg xmlns="http://www.w3.org/2000/svg" xml:space="preserve" width="420mm" height="297mm" version="1.1" style="shape-rendering:geometricPrecision; text-rendering:geometricPrecision; image-rendering:optimizeQuality; fill-rule:evenodd; clip-rule:evenodd"
viewBox="0 0 42000 29700"
 xmlns:xlink="http://www.w3.org/1999/xlink"
 xmlns:xodm="http://www.corel.com/coreldraw/odm/2003">
 <defs>
  <style type="text/css">
   <![CDATA[
    .str0 {stroke:red;stroke-width:7.62;stroke-miterlimit:22.9256}
    .fil0 {fill:none}
   ]]>
  </style>
 </defs>
 <g id="Layer_x0020_1">
  <metadata id="CorelCorpID_0Corel-Layer"/>
  <path class="fil0 str0" d="M20186.97 21378.8l-304.99 528.28 -304.99 528.28 -610.01 0 -610.02 -0.02 -305.01 -528.29 -305 -528.29 0 -1431.74c0,-138.06 -111.94,-250 -250.01,-250l-829.95 0 0 899.95 -300 0 0 1000 300 0 0 1500 4600.02 0 0 -1500 300 0 0 -1000 -300 0 0 -899.95 -830.04 0c-138.07,0 -250,111.94 -250,250l0 1431.78zm-3479.76 136.11l259.8 -150 500 866.03 -259.8 150 -500 -866.03zm4519.5 0.04l-259.8 -150 -500 866.03 259.8 150 500 -866.03z"/>
  <polygon class="fil0 str0" points="21788.52,11841.12 3476.08,11841.12 3476.08,11041.13 3182.3,11041.13 3182.3,10041.09 3476.08,10041.12 3476.08,9591.12 21788.52,9591.12 21788.52,10041.12 22082.3,10041.12 22082.3,11041.12 21788.52,11041.12 "/>
  <path class="fil0 str0" d="M8282.31 19696.93l0 900.04m-4600.01 -900.04l4600.01 0m-4600.01 900.03l0 -900.03m0 3400.04l0 -1499.99 -300.02 0 0 -1000.02 300.02 0m4600.01 2500.01l-4600.01 0m4600.01 -2500l300 0 0 1000 -300 0 0 1500m-4559.77 -1582.06l259.8 -150 500 866.03 -259.8 150 -500 -866.03zm4519.5 0.04l-259.8 -150 -500 866.03 259.8 150 500 -866.03zm-2759.74 782.02l1000 0 0 300 -1000 0 0 -300z"/>
  <polygon class="fil0 str0" points="21791.53,18094.18 21791.53,17394.17 22082.3,17394.17 22082.3,16394.18 21791.53,16394.18 21791.53,15694.18 9773.07,15694.18 9773.07,16394.18 9482.3,16394.18 9482.3,17394.17 9773.07,17394.17 9773.07,18094.18 "/>
  <path class="fil0 str0" d="M14937 20875.04l-1282.84 2221.93 -2017.13 0 -1300.03 -2251.73m2800 1451.73l0 300 -1000 0 0 -300 1000 0zm-3100 -2599.97l0 500 300 0 0 301.83 0 346.41m-300 -1148.24l5200 0 0 500 -300 0 0 331.63 0 346.41"/>
  <polygon class="fil0 str0" points="21788.52,14628.07 3476.08,14628.07 3476.08,13828.08 3182.3,13828.08 3182.3,12828.04 3476.08,12828.07 3476.08,12378.07 21788.52,12378.07 21788.52,12828.07 22082.3,12828.07 22082.3,13828.07 21788.52,13828.07 "/>
  <path class="fil0 str0" d="M21553.13 1816.39l-300 0 0 1000 300 0 0 1500 -18900 0 0 -1500 300 0 0 -1000 -300 0m0 0l0 -899.96 6300 0 0 500 300 0 0 -500 4200 0 0 500 300 0 0 -500 3300 0 0 500 300 0 0 -500 4200 0 0 899.96"/>
  <polygon class="fil0 str0" points="4013.8,25380.21 4013.8,25726.64 4851.94,27178.35 7792.83,27178.35 8613.8,25756.4 8613.8,25410.01 8613.8,25078.3 8913.8,25078.3 8913.8,24578.3 3713.8,24578.3 3713.8,25078.3 4013.8,25078.3 "/>
  <path class="fil0 str0" d="M21553.13 6057.88l-300 0 0 1000 300 0 0 1500 -18900 0 0 -1500 300 0 0 -1000 -300 0m0 0l0 -899.96 6300 0 0 500 300 0 0 -500 4200 0 0 500 300 0 0 -500 3300 0 0 500 300 0 0 -500 4200 0 0 899.96"/>
  <polygon class="fil0 str0" points="10355.55,25380.21 10355.55,25726.64 11193.69,27178.35 14134.58,27178.35 14955.55,25756.4 14955.55,25410.01 14955.55,25078.3 15255.55,25078.3 15255.55,24578.3 10055.55,24578.3 10055.55,25078.3 10355.55,25078.3 "/>
 </g>
 <g id="Guides">
  <metadata id="CorelCorpID_1Corel-Layer"/>
 </g>
</svg>
