<?xml version="1.0" encoding="utf-8"?>
<!-- Generator: Adobe Illustrator 24.0.3, SVG Export Plug-In . SVG Version: 6.00 Build 0)  -->
<svg version="1.1" id="Layer_1" xmlns:xodm="http://www.corel.com/coreldraw/odm/2003"
	 xmlns="http://www.w3.org/2000/svg" xmlns:xlink="http://www.w3.org/1999/xlink" x="0px" y="0px" viewBox="0 0 1190.6 841.9"
	 style="enable-background:new 0 0 1190.6 841.9;" xml:space="preserve">
<style type="text/css">
	.st0{fill:none;stroke:#FF0000;stroke-width:0.216;stroke-miterlimit:10;}
</style>
<path class="st0" d="M572.2,606l-8.6,15l-8.6,15h-17.3l-17.3,0l-8.6-15l-8.6-15v-40.6c0-3.9-3.2-7.1-7.1-7.1h-28.5v25.5h-8.5v28.3
	h8.5v42.5h143.4v-42.5h8.5v-28.3h-8.5v-25.5h-31.5c-3.9,0-7.1,3.2-7.1,7.1L572.2,606L572.2,606z M473.6,609.9l7.4-4.3l14.2,24.5
	l-7.4,4.3L473.6,609.9z M601.7,609.9l-7.4-4.3l-14.2,24.5l7.4,4.3L601.7,609.9z"/>
<polygon class="st0" points="617.6,335.7 98.5,335.7 98.5,313 90.2,313 90.2,284.6 98.5,284.6 98.5,271.9 617.6,271.9 617.6,284.6 
	626,284.6 626,313 617.6,313 "/>
<path class="st0" d="M98.4,654.7v-42.5h-8.5v-28.3h8.5v-25.5h141.4v25.5h8.5v28.3h-8.5v42.5H98.4z M105.5,609.9l7.4-4.3l14.2,24.5
	l-7.4,4.3L105.5,609.9L105.5,609.9z M233.6,609.9l-7.4-4.3l-14.2,24.5l7.4,4.3L233.6,609.9z M155.4,632h28.3v8.5h-28.3V632z"/>
<polygon class="st0" points="617.7,512.9 617.7,493.1 626,493.1 626,464.7 617.7,464.7 617.7,444.9 277,444.9 277,464.7 
	268.8,464.7 268.8,493.1 277,493.1 277,512.9 "/>
<path class="st0" d="M367.8,624.1v8.5h-28.3v-8.5H367.8z M418.8,583.8l5-9.8v-9.4h8.5v-14.2H274.9v14.2h8.5v8.6l5,9.8l36.9,63.8
	h57.2L418.8,583.8"/>
<polygon class="st0" points="617.6,414.7 98.5,414.7 98.5,392 90.2,392 90.2,363.6 98.5,363.6 98.5,350.9 617.6,350.9 617.6,363.6 
	626,363.6 626,392 617.6,392 "/>
<path class="st0" d="M611,51.5h-8.5v28.3h8.5v42.5H75.2V79.8h8.5V51.5h-8.5V26h177.6v14.2h9.5V26h118.1v14.2h9.5V26h92.5v14.2h9.5
	V26H611C611,26,611,51.5,611,51.5z"/>
<polygon class="st0" points="124.8,707 129.8,716.8 153.6,757.9 236.9,757.9 260.2,717.6 265.2,707.8 265.2,698.4 273.7,698.4 
	273.7,684.2 116.3,684.2 116.3,698.4 124.8,698.4 "/>
<polygon class="st0" points="302.2,707 307.2,716.8 330.9,757.9 414.3,757.9 437.6,717.6 442.6,707.8 442.6,698.4 451.1,698.4 
	451.1,684.2 293.7,684.2 293.7,698.4 302.2,698.4 "/>
<path class="st0" d="M75.2,171.7v-25.5h177.6v14.2h9.5v-14.2h118.1v14.2h9.5v-14.2h92.5v14.2h9.5v-14.2H611v25.5h-8.5v28.3h8.5v42.5
	H75.2v-42.5h8.5v-28.3H75.2z"/>
<g id="Guides">
</g>
</svg>
