<?xml version="1.0" encoding="UTF-8"?>
<!DOCTYPE svg PUBLIC "-//W3C//DTD SVG 1.1//EN" "http://www.w3.org/Graphics/SVG/1.1/DTD/svg11.dtd">
<!-- Creator: CorelDRAW -->
<svg xmlns="http://www.w3.org/2000/svg" xml:space="preserve" width="297mm" height="210mm" version="1.1" style="shape-rendering:geometricPrecision; text-rendering:geometricPrecision; image-rendering:optimizeQuality; fill-rule:evenodd; clip-rule:evenodd"
viewBox="0 0 29700 21000"
 xmlns:xlink="http://www.w3.org/1999/xlink"
 xmlns:xodm="http://www.corel.com/coreldraw/odm/2003">
 <defs>
  <style type="text/css">
   <![CDATA[
    .str0 {stroke:red;stroke-width:7.62;stroke-miterlimit:22.9256}
    .fil0 {fill:none}
   ]]>
  </style>
 </defs>
 <g id="Layer_x0020_1">
  <metadata id="CorelCorpID_0Corel-Layer"/>
  <polygon class="fil0 str0" points="6388.18,4012.87 4288.2,4012.87 4288.2,4312.87 3288.2,4312.87 3288.2,4012.87 1188.18,4012.87 1188.18,6112.85 1488.18,6112.85 1488.18,7112.87 1188.18,7112.87 1188.18,9212.87 3288.2,9212.87 3288.2,8912.87 4288.2,8912.87 4288.2,9212.87 6388.18,9212.87 6388.18,7112.86 6088.18,7112.86 6088.18,6112.86 6388.18,6112.86 "/>
  <path class="fil0 str0" d="M11738.17 5412.89l0 599.98 300 0 0 1000 300 0 0 1000 -300 0 0 1200 -1799.96 0 0 300 -1000 0 0 -300 -1800.04 0 0 -1200 -300 0 0 -1000 300 0 0 -1000 300 0 0 -599.98c-0.37,-3479.4 4003.95,-3544.25 4000,0z"/>
  <polygon class="fil0 str0" points="18313.57,2712.83 18313.57,7012.87 18013.57,7012.87 18013.57,8012.87 18313.57,8012.87 18313.57,9212.87 16213.59,9212.87 16213.59,9512.87 15213.59,9512.87 15213.59,9212.87 13113.57,9212.87 13113.57,8012.87 13413.57,8012.87 13413.57,7012.87 13113.57,7012.87 13113.57,2712.83 "/>
  <path class="fil0 str0" d="M23750.15 5412.89l0 599.98 300 0 0 1000 300 0 0 1000 -300 0 0 1200 -1799.96 0 0 300 -1000 0 0 -300 -1800.04 0 0 -1200 -300 0 0 -1000 300 0 0 -1000 300 0 0 -599.98c-0.37,-3479.4 4003.95,-3544.25 4000,0z"/>
  <polygon class="fil0 str0" points="18313.57,10557.57 18313.57,14857.61 18013.57,14857.61 18013.57,15857.61 18313.57,15857.61 18313.57,17057.61 16213.59,17057.61 16213.59,17357.61 15213.59,17357.61 15213.59,17057.61 13113.57,17057.61 13113.57,15857.61 13413.57,15857.61 13413.57,14857.61 13113.57,14857.61 13113.57,10557.57 "/>
 </g>
</svg>
