<?xml version="1.0" encoding="UTF-8"?>
<!DOCTYPE svg PUBLIC "-//W3C//DTD SVG 1.1//EN" "http://www.w3.org/Graphics/SVG/1.1/DTD/svg11.dtd">
<!-- Creator: CorelDRAW -->
<svg xmlns="http://www.w3.org/2000/svg" xml:space="preserve" width="210mm" height="297mm" version="1.1" style="shape-rendering:geometricPrecision; text-rendering:geometricPrecision; image-rendering:optimizeQuality; fill-rule:evenodd; clip-rule:evenodd"
viewBox="0 0 21000 29700"
 xmlns:xlink="http://www.w3.org/1999/xlink"
 xmlns:xodm="http://www.corel.com/coreldraw/odm/2003">
 <defs>
  <style type="text/css">
   <![CDATA[
    .str0 {stroke:red;stroke-width:7.62;stroke-miterlimit:22.9256}
    .fil0 {fill:none}
   ]]>
  </style>
 </defs>
 <g id="Layer_x0020_1">
  <metadata id="CorelCorpID_0Corel-Layer"/>
  <polygon class="fil0 str0" points="12424.85,12852.73 12424.85,11952.73 10024.85,11952.73 10024.85,12852.73 10324.85,12852.73 10324.85,13852.73 10024.85,13852.73 10024.85,14852.73 10324.85,14852.73 10324.85,15352.73 10974.85,15352.73 10974.85,15052.72 11474.85,15052.72 11474.85,15352.73 12124.85,15352.73 12124.85,14852.73 12424.85,14852.73 12424.85,13852.73 12124.85,13852.73 12124.85,12852.73 "/>
  <polygon class="fil0 str0" points="9769.46,15352.73 9769.46,16002.73 10069.47,16002.73 10069.47,16502.73 9769.46,16502.73 9769.46,17152.73 7969.44,17152.73 7969.44,17452.73 6969.44,17452.73 6969.44,17152.73 5169.47,17152.73 5169.47,16502.73 4869.46,16502.73 4869.46,16002.73 5169.47,16002.73 5169.47,15352.73 6969.44,15352.73 6969.44,15052.73 7969.44,15052.73 7969.44,15352.73 "/>
  <polygon class="fil0 str0" points="4924.87,8560.94 4924.87,8060.94 5224.87,8060.94 5224.87,7060.94 4924.87,7060.94 4924.87,6060.94 5224.87,6060.94 5224.87,5160.93 9824.87,5160.93 9824.87,6060.94 10124.87,6060.94 10124.87,7060.94 9824.87,7060.94 9824.87,8060.94 10124.87,8060.94 10124.87,8560.94 7969.44,8560.94 7969.44,8260.94 6969.44,8260.94 6969.44,8560.94 "/>
  <polygon class="fil0 str0" points="15465.61,12852.73 15465.61,11952.73 13065.61,11952.73 13065.61,12852.73 13365.61,12852.73 13365.61,13852.73 13065.61,13852.73 13065.61,14852.73 13365.61,14852.73 13365.61,15352.73 14015.61,15352.73 14015.61,15052.72 14515.61,15052.72 14515.61,15352.73 15165.61,15352.73 15165.61,14852.73 15465.61,14852.73 15465.61,13852.73 15165.61,13852.73 15165.61,12852.73 "/>
  <polygon class="fil0 str0" points="10869.39,8560.94 10869.39,8060.94 11169.39,8060.94 11169.39,7060.94 10869.39,7060.94 10869.39,6060.94 11169.39,6060.94 11169.39,5160.93 15769.39,5160.93 15769.39,6060.94 16069.39,6060.94 16069.39,7060.94 15769.39,7060.94 15769.39,8060.94 16069.39,8060.94 16069.39,8560.94 13913.96,8560.94 13913.96,8260.94 12913.96,8260.94 12913.96,8560.94 "/>
 </g>
</svg>
