<?xml version="1.0" encoding="UTF-8"?>
<!DOCTYPE svg PUBLIC "-//W3C//DTD SVG 1.1//EN" "http://www.w3.org/Graphics/SVG/1.1/DTD/svg11.dtd">
<!-- Creator: CorelDRAW -->
<svg xmlns="http://www.w3.org/2000/svg" xml:space="preserve" width="420mm" height="297mm" version="1.1" style="shape-rendering:geometricPrecision; text-rendering:geometricPrecision; image-rendering:optimizeQuality; fill-rule:evenodd; clip-rule:evenodd"
viewBox="0 0 42000 29700"
 xmlns:xlink="http://www.w3.org/1999/xlink"
 xmlns:xodm="http://www.corel.com/coreldraw/odm/2003">
 <defs>
  <style type="text/css">
   <![CDATA[
    .str0 {stroke:red;stroke-width:7.62;stroke-miterlimit:22.9256}
    .fil0 {fill:none}
   ]]>
  </style>
 </defs>
 <g id="Layer_x0020_1">
  <metadata id="CorelCorpID_0Corel-Layer"/>
  <path class="fil0 str0" d="M10888.68 800.63l0 -300 1500 0 0 300 2012.72 0 0 266.46c0,110.16 -89.84,200 -200,200l-2648.27 9.37 -858.09 1472.5 841.91 1463.13c888.31,-4.9 1776.1,-9.37 2664.45,-9.37 110.16,0 200,89.84 200,200l0 714.37c0,110.16 -89.84,200 -200,200 -882.95,0 -1765.35,4.51 -2648.27,9.37l-858.09 1472.5 841.91 1463.13c888.31,-4.9 1776.1,-9.37 2664.45,-9.37 110.16,0 200,89.84 200,200l0 714.37c0,110.16 -89.84,200 -200,200 -882.95,0 -1765.35,4.51 -2648.27,9.37l-858.09 1472.5 841.91 1463.13c888.31,-4.9 1776.1,-9.37 2664.45,-9.37 110.16,0 200,89.84 200,200l0 714.42c0,110.16 -89.84,200 -200,200 -882.95,0 -1765.35,4.51 -2648.27,9.37l-858.09 1472.5 841.91 1463.13c888.31,-4.9 1776.1,-9.37 2664.45,-9.37 110.16,0 200,89.84 200,200l0 714.32c0,110.16 -89.84,200 -200,200 -882.95,0 -1765.35,4.51 -2648.27,9.37l-858.09 1472.5 841.91 1463.13c888.31,-4.9 1776.1,-9.37 2664.45,-9.37 110.16,0 200,89.84 200,200l0 684.38c0,110.16 -89.84,200 -200,200 -882.95,0 -1765.35,4.51 -2648.27,9.37l-858.09 1472.5 841.91 1463.13c888.31,-4.9 1776.1,-9.37 2664.45,-9.37 110.16,0 200,89.84 200,200l0 714.38c0,110.16 -89.84,200 -200,200 -882.95,0 -1765.35,4.51 -2648.27,9.37l-858.09 1472.5 841.91 1463.13c888.31,-4.9 1776.1,-9.37 2664.45,-9.37 110.16,0 200,89.84 200,200l0 327.89 -2012.72 0 0 300 -1500 0 0 -300 -1000 0 0 -28200 1000 0z"/>
  <path class="fil0 str0" d="M16256.3 800.63l-1000 0 0 28200 1000 0 0 300 1000 0 0 -300 2512.72 0 0 -40c0,-110.16 -89.84,-200 -200,-200 -939.82,0 -1879.3,5.87 -2819.09,11.03l-993.63 -1721.02 1012.73 -1732.05c933.42,-5.14 1866.54,-11.03 2799.99,-11.03 229.72,0 200,-242.6 200,-396.94 0,-110.16 -89.84,-200 -200,-200 -939.82,0 -1879.3,5.87 -2819.09,11.03l-993.63 -1721.02 1012.73 -1732.05c933.42,-5.14 1866.54,-11.03 2799.99,-11.03 229.72,0 200,-242.6 200,-396.94 0,-110.16 -89.84,-200 -200,-200 -939.82,0 -1879.3,5.87 -2819.09,11.03l-993.63 -1721.02 1012.73 -1732.05c933.42,-5.14 1866.54,-11.03 2799.99,-11.03 229.7,0 200,-242.56 200,-396.88 0,-110.16 -89.84,-200 -200,-200 -939.82,0 -1879.3,5.87 -2819.09,11.03l-993.63 -1721.02 1012.73 -1732.05c933.42,-5.14 1866.54,-11.03 2799.99,-11.03 229.73,0 200,-242.64 200,-396.98 0,-110.16 -89.84,-200 -200,-200 -939.82,0 -1879.3,5.87 -2819.09,11.03l-993.63 -1721.02 1012.73 -1732.05c933.42,-5.14 1866.54,-11.03 2799.99,-11.03 229.71,0 200,-242.6 200,-396.93 0,-110.16 -89.84,-200 -200,-200 -939.82,0 -1879.3,5.87 -2819.09,11.03l-993.63 -1721.02 1012.73 -1732.05c933.42,-5.14 1866.54,-11.03 2799.99,-11.03 229.71,0 200,-242.6 200,-396.93 0,-110.16 -89.84,-200 -200,-200 -939.82,0 -1879.3,5.87 -2819.09,11.03l-993.63 -1721.02 1012.73 -1732.05 2800.41 -5.84c110.01,-0.23 199.58,-89.99 199.58,-200l0 -12.1 -2512.72 0 0 -300 -1000 0 0 300z"/>
  <path class="fil0 str0" d="M33831.92 29000.63l0 -2300.84c0,-110.16 -89.84,-200 -200,-200l-2664.45 9.37 -841.91 -1463.13 858.09 -1472.5 2648.27 -9.37c110.16,0 200,-89.84 200,-200l0 -714.37c0,-110.16 -89.84,-200 -200,-200l-2664.45 9.37 -841.91 -1463.13 858.09 -1472.5c882.92,-4.86 1765.32,-9.37 2648.27,-9.37 110.16,0 200,-89.84 200,-200l0 -714.37c0,-110.16 -89.84,-200 -200,-200 -888.35,0 -1776.14,4.47 -2664.45,9.37l-841.91 -1463.13 858.09 -1472.5c882.92,-4.86 1765.32,-9.37 2648.27,-9.37 110.16,0 200,-89.84 200,-200l0 -714.37c0,-110.16 -89.84,-200 -200,-200 -888.35,0 -1776.14,4.47 -2664.45,9.37l-841.91 -1463.13 858.09 -1472.5c882.92,-4.86 1765.32,-9.37 2648.27,-9.37 110.16,0 200,-89.84 200,-200l0 -714.37c0,-110.16 -89.84,-200 -200,-200 -888.35,0 -1776.14,4.47 -2664.45,9.37l-841.91 -1463.13 858.09 -1472.5c882.92,-4.86 1765.32,-9.37 2648.27,-9.37 110.16,0 200,-89.84 200,-200l0 -714.37c0,-110.16 -89.84,-200 -200,-200 -888.35,0 -1776.14,4.47 -2664.45,9.37l-841.91 -1463.13 858.09 -1472.5c882.92,-4.86 1765.32,-9.37 2648.27,-9.37 110.16,0 200,-89.84 200,-200l0 -2313.53 -2300 0 0 -300 -1000 0 0 300 -3500 0 0 28200 3500 0 0 300 1000 0 0 -300 2300 0z"/>
  <path class="fil0 str0" d="M41147.47 800.63l0 2143.98c0,110.16 -89.84,200 -200,200 -933.45,0 -1866.57,5.89 -2799.99,11.03l-1012.73 1732.05 993.63 1721.02c939.79,-5.16 1879.27,-11.03 2819.09,-11.03 110.16,0 200,89.84 200,200l0 196.93c0,110.16 -89.84,200 -200,200 -933.45,0 -1866.57,5.89 -2799.99,11.03l-1012.73 1732.05 993.63 1721.02c939.79,-5.16 1879.27,-11.03 2819.09,-11.03 110.16,0 200,89.84 200,200l0 186.93c0,110.16 -89.84,200 -200,200 -933.45,0 -1866.57,5.89 -2799.99,11.03l-1012.73 1732.05 993.63 1721.02c939.79,-5.16 1879.27,-11.03 2819.09,-11.03 110.16,0 200,89.84 200,200l0 176.93c0,110.16 -89.84,200 -200,200 -933.45,0 -1866.57,5.89 -2799.99,11.03l-1012.73 1732.05 993.63 1721.02c939.79,-5.16 1879.27,-11.03 2819.09,-11.03 110.16,0 200,89.84 200,200l0 176.93c0,110.16 -89.84,200 -200,200 -933.45,0 -1866.57,5.89 -2799.99,11.03l-1012.73 1732.05 993.63 1721.02c939.79,-5.16 1879.27,-11.03 2819.09,-11.03 110.16,0 200,89.84 200,200l0 176.93c0,110.16 -89.84,200 -200,200 -933.45,0 -1866.57,5.89 -2799.99,11.03l-1012.73 1732.05 993.63 1721.02c939.79,-5.16 1879.27,-11.03 2819.09,-11.03 110.16,0 200,89.84 200,200l0 2022.95 -1800 0 0 300 -1500 0 0 -300 -3500 0 0 -28200 3500 0 0 -300 1500 0 0 300 1800 0z"/>
  <path class="fil0 str0" d="M7339.69 29000.63l0 -2703.43c0,-220.31 -179.69,-400 -400,-400 -703.92,0 -1407.25,1.62 -2111.12,5.51l-495.24 -860.54 504.76 -866.05c700.7,-3.85 1400.85,-5.51 2101.6,-5.51 220.31,0 400,-179.69 400,-400l0 -1523.41c0,-220.31 -179.69,-400 -400,-400 -703.92,0 -1407.25,1.62 -2111.12,5.51l-495.24 -860.54 504.76 -866.05c700.7,-3.85 1400.85,-5.51 2101.6,-5.51 220.31,0 400,-179.69 400,-400l0 -1523.41c0,-220.31 -179.69,-400 -400,-400 -703.92,0 -1407.25,1.62 -2111.12,5.51l-495.24 -860.54 504.76 -866.05c700.7,-3.85 1400.85,-5.51 2101.6,-5.51 220.31,0 400,-179.69 400,-400l0 -1523.41c0,-220.31 -179.69,-400 -400,-400 -703.92,0 -1407.25,1.62 -2111.12,5.51l-495.24 -860.54 504.76 -866.05c700.7,-3.85 1400.85,-5.51 2101.6,-5.51 220.31,0 400,-179.69 400,-400l0 -1523.41c0,-220.31 -179.69,-400 -400,-400 -703.92,0 -1407.25,1.62 -2111.12,5.51l-495.24 -860.54 504.76 -866.05c700.7,-3.85 1400.85,-5.51 2101.6,-5.51 220.31,0 400,-179.69 400,-400l0 -1523.41c0,-220.31 -179.69,-400 -400,-400 -703.92,0 -1407.25,1.62 -2111.12,5.51l-495.24 -860.54 504.76 -866.05c700.7,-3.85 1400.85,-5.51 2101.6,-5.51 220.31,0 400,-179.69 400,-400l0 -2719.98 -1300 0 0 -300 -2000 0 0 300 -3500 0 0 28200 3500 0 0 300 1999.99 0 0 -300 1300.01 0z"/>
  <path class="fil0 str0" d="M21996.07 2094.47l-3500 0c0,500 0,1000 0,1500l1000 0 0 -600 1000 0 0 300 500.01 0 0 300.01 4100.11 -2.48c110.11,-0.07 199.88,-89.89 199.88,-200l0 -1297.53 -1300 0 0 300 -500 0 0 300 -500 0 0 300 -1000 0 0 -900z"/>
  <path class="fil0 str0" d="M21996.07 6088.25l-3500 0c0,500 0,1000 0,1500l1000 0 0 -600 1000 0 0 300 500.01 0 0 300.01 4100.11 -2.48c110.11,-0.07 199.88,-89.89 199.88,-200l0 -1297.53 -1300 0 0 300 -500 0 0 300 -500 0 0 300 -1000 0 0 -900z"/>
 </g>
</svg>
