<?xml version="1.0" encoding="UTF-8"?>
<!DOCTYPE svg PUBLIC "-//W3C//DTD SVG 1.1//EN" "http://www.w3.org/Graphics/SVG/1.1/DTD/svg11.dtd">
<!-- Creator: CorelDRAW -->
<svg xmlns="http://www.w3.org/2000/svg" xml:space="preserve" width="210mm" height="297mm" version="1.1" style="shape-rendering:geometricPrecision; text-rendering:geometricPrecision; image-rendering:optimizeQuality; fill-rule:evenodd; clip-rule:evenodd"
viewBox="0 0 21000 29700"
 xmlns:xlink="http://www.w3.org/1999/xlink"
 xmlns:xodm="http://www.corel.com/coreldraw/odm/2003">
 <defs>
  <style type="text/css">
   <![CDATA[
    .str0 {stroke:red;stroke-width:7.62;stroke-miterlimit:22.9256}
    .fil0 {fill:none}
   ]]>
  </style>
 </defs>
 <g id="Layer_x0020_1">
  <metadata id="CorelCorpID_0Corel-Layer"/>
  <path class="fil0 str0" d="M9570.56 19638.15l-259.8 -150 -500 866.03 259.8 150 500 -866.03zm-4519.5 -0.04l259.8 -150 500 866.03 -259.8 150 -500 -866.03zm-340.28 1582.06l5200.09 0 0 -500 -300 0 0 -1000 300 0 0 -1000 -300 0 0 -899.95 -830.05 0c-138.07,0 -250,111.94 -250,250l0 1431.78 -304.99 528.28 -304.99 528.28 -610.01 0 -610.02 -0.02 -305.01 -528.29 -305 -528.29 0 -1431.82c0,-138.06 -111.94,-250 -250.01,-250l-830.01 0 0 900.03 -300 0 0 1000 300 0 0 1000 -300 0 0 500z"/>
  <polygon class="fil0 str0" points="5024.85,12852.73 5024.85,11952.73 2624.85,11952.73 2624.85,12852.73 2924.85,12852.73 2924.85,13852.73 2624.85,13852.73 2624.85,14852.73 2924.85,14852.73 2924.85,15352.73 4724.85,15352.73 4724.85,14852.73 5024.85,14852.73 5024.85,13852.73 4724.85,13852.73 4724.85,12852.73 "/>
  <path class="fil0 str0" d="M11337.78 13990.41l0 -1800m1500 0l0 1800m-500 0l0 300m0 -2400l0 300m0 2100l-1000 0m0 -300l0 300m1000 -2400l-1000 0m0 300l0 -300m1000 2100l500 0m-500 -1800l500 0"/>
  <path class="fil0 str0" d="M17150.72 13952.73l0 -1800m1500 0l0 1800m-500 0l0 300m0 -2400l0 300m0 2100l-1000 0m0 -300l0 300m1000 -2400l-1000 0m0 300l0 -300m1000 2100l500 0m-500 -1800l500 0"/>
  <path class="fil0 str0" d="M16412.92 19638.15l-259.8 -150 -500 866.03 259.8 150 500 -866.03zm-4519.5 -0.04l259.8 -150 500 866.03 -259.8 150 -500 -866.03zm-340.28 1582.06l5200.09 0 0 -500 -300 0 0 -1000 300 0 0 -1000 -300 0 0 -899.95 -830.05 0c-138.07,0 -250,111.94 -250,250l0 1431.78 -304.99 528.28 -304.99 528.28 -610.01 0 -610.02 -0.02 -305.01 -528.29 -305 -528.29 0 -1431.82c0,-138.06 -111.94,-250 -250.01,-250l-830.01 0 0 900.03 -300 0 0 1000 300 0 0 1000 -300 0 0 500z"/>
  <polygon class="fil0 str0" points="16087.43,12852.73 16087.43,11952.73 13687.43,11952.73 13687.43,12852.73 13987.43,12852.73 13987.43,13852.73 13687.43,13852.73 13687.43,14852.73 13987.43,14852.73 13987.43,15352.73 15787.43,15352.73 15787.43,14852.73 16087.43,14852.73 16087.43,13852.73 15787.43,13852.73 15787.43,12852.73 "/>
 </g>
</svg>
